<svg xmlns="http://www.w3.org/2000/svg" xmlns:xlink="http://www.w3.org/1999/xlink" width="501" zoomAndPan="magnify" viewBox="0 0 375.75 170.249993" height="227" preserveAspectRatio="xMidYMid meet" version="1.0"><defs><g/><clipPath id="ed0820e998"><path d="M 21 58.59375 L 65 58.59375 L 65 110.863281 L 21 110.863281 Z M 21 58.59375 " clip-rule="nonzero"/></clipPath></defs><path stroke-linecap="butt" transform="matrix(0.00000000130326, 0.74671, -0.74671, 0.00000000130326, 83.868706, 39.592616)" fill="none" stroke-linejoin="miter" d="M 0.00151858 2.502585 L 120.498775 2.502585 " stroke="#ffffff" stroke-width="5" stroke-opacity="1" stroke-miterlimit="4"/><g clip-path="url(#ed0820e998)"><path fill="#1693e3" d="M 62.4375 88.222656 C 58.484375 97.148438 52.398438 105.8125 43.050781 110.503906 C 33.703125 105.8125 27.617188 97.148438 23.664062 88.222656 C 17.496094 74.296875 27.820312 58.640625 43.050781 58.640625 C 58.28125 58.640625 68.605469 74.296875 62.4375 88.222656 Z M 62.4375 88.222656 " fill-opacity="1" fill-rule="nonzero"/></g><g fill="#ffffff" fill-opacity="1"><g transform="translate(95.323085, 109.889056)"><g><path d="M 40.703125 -36.953125 C 40.703125 -32.609375 39.210938 -29 36.234375 -26.125 C 33.265625 -23.25 28.734375 -21.8125 22.640625 -21.8125 L 12.59375 -21.8125 L 12.59375 0 L 5.765625 0 L 5.765625 -52.25 L 22.640625 -52.25 C 28.535156 -52.25 33.019531 -50.820312 36.09375 -47.96875 C 39.164062 -45.125 40.703125 -41.453125 40.703125 -36.953125 Z M 22.640625 -27.4375 C 26.441406 -27.4375 29.238281 -28.257812 31.03125 -29.90625 C 32.832031 -31.5625 33.734375 -33.910156 33.734375 -36.953125 C 33.734375 -43.398438 30.035156 -46.625 22.640625 -46.625 L 12.59375 -46.625 L 12.59375 -27.4375 Z M 22.640625 -27.4375 "/></g></g></g><g fill="#ffffff" fill-opacity="1"><g transform="translate(138.730332, 109.889056)"><g><path d="M 3.21875 -20.6875 C 3.21875 -24.882812 4.066406 -28.570312 5.765625 -31.75 C 7.472656 -34.925781 9.8125 -37.382812 12.78125 -39.125 C 15.757812 -40.875 19.070312 -41.75 22.71875 -41.75 C 26.3125 -41.75 29.429688 -40.972656 32.078125 -39.421875 C 34.734375 -37.878906 36.710938 -35.9375 38.015625 -33.59375 L 38.015625 -41.078125 L 44.90625 -41.078125 L 44.90625 0 L 38.015625 0 L 38.015625 -7.640625 C 36.660156 -5.242188 34.644531 -3.257812 31.96875 -1.6875 C 29.300781 -0.113281 26.191406 0.671875 22.640625 0.671875 C 18.992188 0.671875 15.695312 -0.222656 12.75 -2.015625 C 9.800781 -3.816406 7.472656 -6.34375 5.765625 -9.59375 C 4.066406 -12.84375 3.21875 -16.539062 3.21875 -20.6875 Z M 38.015625 -20.609375 C 38.015625 -23.710938 37.390625 -26.410156 36.140625 -28.703125 C 34.890625 -31.003906 33.203125 -32.765625 31.078125 -33.984375 C 28.953125 -35.210938 26.613281 -35.828125 24.0625 -35.828125 C 21.507812 -35.828125 19.179688 -35.226562 17.078125 -34.03125 C 14.984375 -32.832031 13.3125 -31.082031 12.0625 -28.78125 C 10.820312 -26.488281 10.203125 -23.789062 10.203125 -20.6875 C 10.203125 -17.539062 10.820312 -14.804688 12.0625 -12.484375 C 13.3125 -10.160156 14.984375 -8.382812 17.078125 -7.15625 C 19.179688 -5.9375 21.507812 -5.328125 24.0625 -5.328125 C 26.613281 -5.328125 28.953125 -5.9375 31.078125 -7.15625 C 33.203125 -8.382812 34.890625 -10.160156 36.140625 -12.484375 C 37.390625 -14.804688 38.015625 -17.515625 38.015625 -20.609375 Z M 38.015625 -20.609375 "/></g></g></g><g fill="#ffffff" fill-opacity="1"><g transform="translate(189.409605, 109.889056)"><g><path d="M 12.59375 -34.40625 C 13.789062 -36.757812 15.5 -38.582031 17.71875 -39.875 C 19.945312 -41.175781 22.660156 -41.828125 25.859375 -41.828125 L 25.859375 -34.78125 L 24.0625 -34.78125 C 16.414062 -34.78125 12.59375 -30.632812 12.59375 -22.34375 L 12.59375 0 L 5.765625 0 L 5.765625 -41.078125 L 12.59375 -41.078125 Z M 12.59375 -34.40625 "/></g></g></g><g fill="#ffffff" fill-opacity="1"><g transform="translate(217.373174, 109.889056)"><g><path d="M 28.71875 0 L 12.59375 -18.140625 L 12.59375 0 L 5.765625 0 L 5.765625 -55.484375 L 12.59375 -55.484375 L 12.59375 -22.859375 L 28.40625 -41.078125 L 37.9375 -41.078125 L 18.59375 -20.609375 L 38.015625 0 Z M 28.71875 0 "/></g></g></g><g fill="#ffffff" fill-opacity="1"><g transform="translate(255.982383, 109.889056)"><g><path d="M 9.296875 -47.75 C 7.992188 -47.75 6.890625 -48.195312 5.984375 -49.09375 C 5.085938 -50 4.640625 -51.101562 4.640625 -52.40625 C 4.640625 -53.707031 5.085938 -54.804688 5.984375 -55.703125 C 6.890625 -56.597656 7.992188 -57.046875 9.296875 -57.046875 C 10.546875 -57.046875 11.609375 -56.597656 12.484375 -55.703125 C 13.359375 -54.804688 13.796875 -53.707031 13.796875 -52.40625 C 13.796875 -51.101562 13.359375 -50 12.484375 -49.09375 C 11.609375 -48.195312 10.546875 -47.75 9.296875 -47.75 Z M 12.59375 -41.078125 L 12.59375 0 L 5.765625 0 L 5.765625 -41.078125 Z M 12.59375 -41.078125 "/></g></g></g><g fill="#ffffff" fill-opacity="1"><g transform="translate(274.424845, 109.889056)"><g><path d="M 12.4375 -52.25 L 12.4375 -19.1875 C 12.4375 -14.539062 13.570312 -11.09375 15.84375 -8.84375 C 18.125 -6.59375 21.289062 -5.46875 25.34375 -5.46875 C 29.34375 -5.46875 32.476562 -6.59375 34.75 -8.84375 C 37.019531 -11.09375 38.15625 -14.539062 38.15625 -19.1875 L 38.15625 -52.25 L 44.984375 -52.25 L 44.984375 -19.265625 C 44.984375 -14.921875 44.109375 -11.257812 42.359375 -8.28125 C 40.609375 -5.3125 38.242188 -3.097656 35.265625 -1.640625 C 32.296875 -0.191406 28.960938 0.53125 25.265625 0.53125 C 21.566406 0.53125 18.226562 -0.191406 15.25 -1.640625 C 12.28125 -3.097656 9.929688 -5.3125 8.203125 -8.28125 C 6.484375 -11.257812 5.625 -14.921875 5.625 -19.265625 L 5.625 -52.25 Z M 19.265625 -57.5 C 18.160156 -57.5 17.21875 -57.875 16.4375 -58.625 C 15.664062 -59.375 15.28125 -60.300781 15.28125 -61.40625 C 15.28125 -62.5 15.664062 -63.429688 16.4375 -64.203125 C 17.21875 -64.984375 18.160156 -65.375 19.265625 -65.375 C 20.304688 -65.375 21.210938 -64.984375 21.984375 -64.203125 C 22.765625 -63.429688 23.15625 -62.5 23.15625 -61.40625 C 23.15625 -60.300781 22.765625 -59.375 21.984375 -58.625 C 21.210938 -57.875 20.304688 -57.5 19.265625 -57.5 Z M 31.40625 -57.5 C 30.300781 -57.5 29.375 -57.875 28.625 -58.625 C 27.875 -59.375 27.5 -60.300781 27.5 -61.40625 C 27.5 -62.5 27.875 -63.429688 28.625 -64.203125 C 29.375 -64.984375 30.300781 -65.375 31.40625 -65.375 C 32.5 -65.375 33.429688 -64.984375 34.203125 -64.203125 C 34.984375 -63.429688 35.375 -62.5 35.375 -61.40625 C 35.375 -60.300781 34.984375 -59.375 34.203125 -58.625 C 33.429688 -57.875 32.5 -57.5 31.40625 -57.5 Z M 31.40625 -57.5 "/></g></g></g><g fill="#000000" fill-opacity="1"><g transform="translate(33.105067, 97.204975)"><g><path d="M 21.953125 -17.5 C 21.953125 -16 21.609375 -14.628906 20.921875 -13.390625 C 20.234375 -12.160156 19.175781 -11.164062 17.75 -10.40625 C 16.332031 -9.644531 14.570312 -9.265625 12.46875 -9.265625 L 8.5625 -9.265625 L 8.5625 0 L 2.28125 0 L 2.28125 -25.8125 L 12.46875 -25.8125 C 14.519531 -25.8125 16.253906 -25.453125 17.671875 -24.734375 C 19.097656 -24.023438 20.164062 -23.046875 20.875 -21.796875 C 21.59375 -20.546875 21.953125 -19.113281 21.953125 -17.5 Z M 11.984375 -14.265625 C 13.179688 -14.265625 14.070312 -14.546875 14.65625 -15.109375 C 15.25 -15.671875 15.546875 -16.46875 15.546875 -17.5 C 15.546875 -18.53125 15.25 -19.328125 14.65625 -19.890625 C 14.070312 -20.453125 13.179688 -20.734375 11.984375 -20.734375 L 8.5625 -20.734375 L 8.5625 -14.265625 Z M 11.984375 -14.265625 "/></g></g></g></svg>
